<svg width="23" height="23" viewBox="0 0 23 23" fill="none" xmlns="http://www.w3.org/2000/svg">
<g clip-path="url(#clip0_84_195)">
<path d="M1.06917 1.02424C0.934404 1.1051 0.808623 1.32522 0.808623 1.48244C0.808623 1.63518 0.934404 1.83733 1.09163 1.93166C1.2219 2.01252 1.32073 2.02151 2.21468 2.02151C2.74925 2.02151 3.18948 2.03049 3.18948 2.03947C3.18948 2.04846 3.31976 2.60549 3.48147 3.27932C3.64319 3.95315 3.77347 4.51018 3.77347 4.51916C3.77347 4.52814 3.02327 4.53713 2.10686 4.53713C0.238115 4.53713 0.20667 4.54162 0.0674118 4.83811C-0.0359085 5.05373 0.00452116 5.28283 0.179716 5.45803L0.314482 5.59279L11.0418 5.61526L21.7692 5.63772L20.8887 9.25842C20.2867 11.7246 19.9768 12.9285 19.9049 13.0408C19.851 13.1352 19.7252 13.2385 19.6129 13.2924C19.4242 13.3867 19.4063 13.3867 12.7039 13.3867C8.39144 13.3867 5.89827 13.4047 5.74554 13.4317C4.90999 13.5889 4.22269 14.3031 4.08343 15.1656C3.91722 16.2078 4.62698 17.259 5.66019 17.4926C5.83089 17.533 6.03753 17.5645 6.11839 17.5645C6.26214 17.5645 6.26214 17.569 5.98811 17.7442C4.71683 18.5752 4.53265 20.2912 5.5928 21.3649C6.50921 22.2947 7.94671 22.2903 8.87659 21.3649C9.37073 20.8752 9.56839 20.399 9.56839 19.7207C9.56839 19.4961 9.53694 19.2311 9.49651 19.0873C9.3303 18.5168 8.91702 17.9778 8.43186 17.6992L8.19827 17.5645H13.3194H18.4405L18.2158 17.6947C17.9104 17.8699 17.5106 18.2787 17.3489 18.5887C17.1467 18.9705 17.0703 19.285 17.0703 19.7252C17.0703 20.2014 17.1782 20.5832 17.4207 20.9606C18.2473 22.2319 19.9588 22.434 21.028 21.3828C22.1061 20.3227 21.9264 18.5662 20.6506 17.7397L20.3946 17.5735L20.8483 17.5555L21.302 17.542L21.4547 17.3758C21.567 17.25 21.6075 17.1647 21.6075 17.0479C21.6075 16.8502 21.5041 16.6436 21.3694 16.5672C21.293 16.5223 19.7117 16.5043 13.5664 16.4863C6.15433 16.4639 5.85784 16.4594 5.70511 16.3785C5.32776 16.1809 5.14808 15.8844 5.14808 15.4756C5.14808 15.0444 5.34573 14.7434 5.75003 14.5592C5.95218 14.4694 6.00608 14.4649 12.7399 14.4649C20.161 14.4649 19.7432 14.4783 20.2014 14.2088C20.4799 14.0471 20.8573 13.6158 20.9696 13.3373C21.0774 13.0678 23 5.21096 23 5.04025C23 4.89201 22.8787 4.69885 22.7305 4.609C22.6137 4.54162 21.868 4.53713 13.7506 4.53713H4.90101L4.85608 4.36643C4.82913 4.27658 4.65843 3.55334 4.46976 2.76272C4.28108 1.97658 4.0969 1.27131 4.06097 1.20393C3.93069 0.956858 3.85433 0.94338 2.46175 0.94338C1.34319 0.94338 1.17698 0.956858 1.06917 1.02424ZM7.81644 18.6022C8.26116 18.8268 8.48128 19.1906 8.48577 19.7207C8.49476 20.3901 8.01409 20.9156 7.34026 20.9696C6.93597 21.001 6.64397 20.8887 6.35198 20.5967C5.79944 20.0442 5.86233 19.1862 6.49124 18.7055C6.86858 18.418 7.36722 18.3821 7.81644 18.6022ZM19.9723 18.5887C20.2194 18.7145 20.5069 19.0469 20.5922 19.3029C20.7539 19.7746 20.6416 20.2418 20.2823 20.6012C19.4871 21.4008 18.1485 20.8483 18.1485 19.7207C18.153 19.2131 18.3866 18.8223 18.8313 18.5977C19.0918 18.4674 19.1412 18.4584 19.4512 18.4764C19.6758 18.4854 19.851 18.5258 19.9723 18.5887Z" fill="#868686"/>
<path d="M3.52639 7.6008C3.36467 7.72658 3.27483 7.95119 3.30628 8.13087C3.34671 8.31056 3.54885 8.5172 3.73303 8.55314C3.8094 8.56662 5.3592 8.58009 7.17405 8.58009C10.8082 8.58009 10.6959 8.58908 10.8711 8.30158C10.9789 8.12189 10.9834 7.99162 10.8891 7.78947C10.7453 7.48849 10.9205 7.50197 7.10667 7.50197H3.65217L3.52639 7.6008Z" fill="#868686"/>
<path d="M0.732254 10.4713C0.440261 10.5567 0.292019 10.916 0.426785 11.2035C0.575027 11.5135 0.386355 11.5 4.20471 11.5H7.64573L7.79846 11.3473C7.92874 11.217 7.9512 11.1631 7.9512 10.9924C7.9512 10.8576 7.91975 10.7543 7.85237 10.669C7.65472 10.4174 7.74007 10.4219 4.16878 10.4264C2.30452 10.4264 0.813113 10.4488 0.732254 10.4713Z" fill="#868686"/>
</g>
<defs>
<clipPath id="clip0_84_195">
<rect width="23" height="23" fill="white"/>
</clipPath>
</defs>
</svg>
