<svg width="23" height="23" viewBox="0 0 23 23" fill="none" xmlns="http://www.w3.org/2000/svg">
<path d="M5.66914 1.30275C4.23613 1.48244 3.03672 2.07091 2.02148 3.09513C1.10957 4.01154 0.56152 4.98185 0.247067 6.24416C-0.309964 8.43185 0.094333 10.5881 1.433 12.6141C2.29101 13.9123 3.40058 15.1027 5.43554 16.9176C6.72929 18.0721 10.6779 21.4412 10.8711 21.5535C11.0508 21.6613 11.1182 21.6748 11.5 21.6748C11.8818 21.6748 11.9492 21.6613 12.1289 21.5535C12.3221 21.4412 16.2797 18.0676 17.5645 16.9176C19.6084 15.0938 20.709 13.9078 21.567 12.6141C22.9057 10.5881 23.31 8.43185 22.7529 6.24416C22.4385 4.98185 21.8904 4.01154 20.9785 3.09513C20.0711 2.18322 19.1008 1.65763 17.8295 1.3881C17.1916 1.25334 16.0146 1.23986 15.4576 1.36564C13.9033 1.70255 12.7129 2.4797 11.6258 3.8633L11.5 4.02052L11.3787 3.8633C10.3051 2.50666 9.13262 1.72951 7.63672 1.3881C7.19199 1.28478 6.16777 1.23986 5.66914 1.30275ZM7.16953 2.67287C8.44531 2.89748 9.5459 3.6342 10.4174 4.85158C10.5656 5.06271 10.7498 5.31427 10.8217 5.41759C11.1541 5.88478 11.8459 5.88478 12.1783 5.41759C12.2502 5.31427 12.4344 5.06271 12.5826 4.85158C13.773 3.18947 15.4307 2.40783 17.2365 2.6549C19.24 2.92892 20.8033 4.33048 21.4008 6.3924C21.8725 8.02306 21.6658 9.73459 20.8078 11.2754C20.0891 12.5647 18.8896 13.9168 16.8008 15.7901C15.79 16.693 11.5404 20.3496 11.5 20.3496C11.4551 20.3496 7.22343 16.7065 6.19922 15.7901C2.9873 12.9106 1.7205 11.1137 1.41504 9.00685C1.21738 7.64572 1.50039 6.18127 2.18769 5.02677C3.2209 3.2883 5.2334 2.33595 7.16953 2.67287Z" fill="#878787"/>
</svg>
