<svg width="19" height="22" viewBox="0 0 19 22" fill="none" xmlns="http://www.w3.org/2000/svg">
<path d="M8.24097 0.0564976C7.06634 0.237209 6.0165 0.796554 5.19469 1.66999C4.29113 2.62948 3.82214 3.73957 3.7576 5.06908C3.66725 6.92783 4.57941 8.70482 6.15418 9.73316C6.92866 10.2409 7.67302 10.499 8.57657 10.5722C10.2503 10.7013 11.6788 10.1763 12.8319 9.00171C13.9592 7.8529 14.4626 6.43733 14.3249 4.81093C14.2044 3.41687 13.5892 2.21643 12.5221 1.29566C11.6788 0.572816 10.9043 0.211393 9.83295 0.0564976C9.31663 -0.0166473 8.71426 -0.0209503 8.24097 0.0564976ZM10.0739 1.40753C10.7494 1.57964 11.2571 1.87652 11.8251 2.42295C12.5651 3.12429 12.9395 3.89876 13.0384 4.90128C13.1546 6.08881 12.7889 7.17308 11.9843 8.03361C11.4852 8.56714 10.7494 9.01892 10.1255 9.17812C9.20046 9.41046 8.09898 9.3115 7.30729 8.91996C6.22733 8.38643 5.42703 7.38821 5.13445 6.20929C5.02258 5.75751 5.03549 4.73778 5.16027 4.27309C5.49157 3.02533 6.57584 1.86791 7.78058 1.47637C8.43459 1.26554 9.41129 1.23542 10.0739 1.40753Z" fill="#888888"/>
<path d="M4.33425 10.6668C3.67594 10.7357 2.99613 10.9852 2.45829 11.3467C1.11587 12.2588 0.246732 14.2983 0.0445073 17.0089C-0.0673616 18.5321 0.022994 19.285 0.414535 20.0724C0.629668 20.5113 1.03842 20.9932 1.45578 21.303C1.77417 21.5353 2.3077 21.7763 2.77669 21.8968L3.16393 22H9.18764H15.2114L15.5986 21.9011C16.9582 21.5439 17.9091 20.6275 18.249 19.3324C18.4254 18.6655 18.4039 17.0735 18.1974 15.8171C17.7456 13.0204 16.6011 11.3423 14.7897 10.8174C14.3766 10.697 13.6366 10.6066 13.4171 10.6496C13.2063 10.6883 12.9137 10.8432 12.2511 11.2692C11.5369 11.7296 11.425 11.7898 10.8915 11.9834C10.2633 12.2115 9.79431 12.3018 9.21346 12.3018C8.61108 12.3018 8.1464 12.2158 7.53542 12.0007C6.95887 11.7941 6.93305 11.7812 6.02949 11.209C5.5562 10.9078 5.20339 10.7142 5.0657 10.6754C4.82475 10.6152 4.82475 10.6152 4.33425 10.6668ZM5.45294 12.3664C6.26184 12.887 6.60175 13.0548 7.31168 13.2871C9.16182 13.8938 11.0507 13.6012 12.832 12.4352C13.6366 11.906 13.6194 11.9146 13.9593 11.9576C15.5211 12.1556 16.4978 13.4679 16.9109 15.9333C17.0787 16.9487 17.1303 18.3643 17.0185 18.9021C16.8378 19.7669 16.2526 20.3779 15.3576 20.6318C15.0995 20.7049 14.7596 20.7092 9.18764 20.7092C3.6028 20.7092 3.2801 20.7049 3.01334 20.6318C2.37224 20.4511 1.8172 20.0122 1.55904 19.483C1.3353 19.0269 1.27937 18.6439 1.31379 17.7189C1.34391 16.7852 1.38693 16.3506 1.53753 15.5891C1.6494 14.9953 1.91186 14.152 2.09687 13.7863C2.65191 12.6848 3.40488 12.0824 4.38158 11.9576C4.54078 11.9361 4.68707 11.9189 4.70428 11.9146C4.72149 11.9146 5.0571 12.1168 5.45294 12.3664Z" fill="#888888"/>
</svg>
