<svg width="19" height="24" viewBox="0 0 19 24" fill="none" xmlns="http://www.w3.org/2000/svg">
<path d="M1.57789 0.0421848C1.25727 0.119755 0.786685 0.393833 0.559148 0.642056C0.44538 0.766167 0.274727 1.02473 0.186815 1.21607L0.0213332 1.56255L0.00581926 2.90191C-0.0148659 4.50502 0.000647951 4.5981 0.378153 4.9756C0.745315 5.33759 0.859084 5.36345 2.18811 5.36345H3.30511V11.569V17.7746H2.18811C0.859084 17.7746 0.745315 17.8004 0.378153 18.1624C0.000647951 18.5399 -0.0148659 18.633 0.00581926 20.2361L0.0213332 21.5806L0.212671 21.9737C0.44538 22.4443 0.745315 22.7338 1.22625 22.9614L1.57272 23.1269H9.51067H17.4486L17.7951 22.9614C18.276 22.7338 18.576 22.4443 18.8087 21.9737L19 21.5806V11.5742V1.56255L18.8345 1.21607C18.607 0.73514 18.3174 0.435204 17.8468 0.202496L17.4538 0.011158L9.61926 0.000814438C4.99612 -0.00435638 1.69683 0.0163288 1.57789 0.0421848ZM2.68972 1.00405C2.82418 1.07644 2.97932 1.20056 3.04137 1.2833C3.28442 1.60909 3.30511 1.77974 3.30511 3.19668V4.53604H2.19328C1.07628 4.53604 1.07628 4.53604 0.952167 4.40676L0.822885 4.28265V3.07257C0.822885 1.79008 0.853912 1.58323 1.08145 1.29364C1.44861 0.823051 2.13639 0.69894 2.68972 1.00405ZM17.34 0.874763C17.6244 0.957504 18.0537 1.38672 18.1364 1.67114C18.2295 1.98142 18.2295 21.1566 18.1364 21.4669C18.0537 21.7513 17.6244 22.1805 17.34 22.2633C17.1745 22.3098 15.5352 22.3253 10.4312 22.3253H3.7395L3.92049 21.953L4.10666 21.5806V11.569V1.55737L3.92049 1.18504L3.7395 0.812708H10.4312C15.5352 0.812708 17.1745 0.828222 17.34 0.874763ZM3.30511 19.9413C3.30511 21.3583 3.28442 21.5289 3.04137 21.8547C2.72075 22.2891 1.97608 22.4287 1.46413 22.1495C1.31416 22.0719 1.14868 21.9375 1.08662 21.8547C0.848741 21.5341 0.822885 21.3531 0.822885 20.0655V18.8554L0.952167 18.7313C1.07628 18.602 1.07628 18.602 2.19328 18.602H3.30511V19.9413Z" fill="#888888"/>
<path d="M6.94572 2.37444L6.20105 3.10876L5.87009 2.78814C5.48741 2.41581 5.32193 2.37961 5.09439 2.60197C4.841 2.86054 4.89271 2.98982 5.49258 3.58969C6.24242 4.33436 6.139 4.36022 7.29737 3.20184C7.80415 2.70023 8.23337 2.23481 8.24889 2.17276C8.31611 1.91936 8.09892 1.64011 7.83518 1.64011C7.7059 1.64011 7.5611 1.75905 6.94572 2.37444Z" fill="#888888"/>
<path d="M9.22627 3.01051C9.14353 3.08808 9.09698 3.19667 9.09698 3.29493C9.09698 3.39318 9.14353 3.50178 9.22627 3.57935L9.35038 3.70863H13.2237C16.9522 3.70863 17.1073 3.70346 17.2211 3.61038C17.3917 3.47075 17.3917 3.11911 17.2211 2.97948C17.1073 2.8864 16.9522 2.88123 13.2237 2.88123H9.35038L9.22627 3.01051Z" fill="#888888"/>
<path d="M6.94572 6.51148L6.20105 7.24581L5.87009 6.92519C5.48741 6.55285 5.32193 6.51665 5.09439 6.73902C4.841 6.99759 4.89271 7.12687 5.49258 7.72674C6.24242 8.47141 6.139 8.49726 7.29737 7.33889C7.80415 6.83728 8.23337 6.37186 8.24889 6.3098C8.31611 6.05641 8.09892 5.77716 7.83518 5.77716C7.7059 5.77716 7.5611 5.8961 6.94572 6.51148Z" fill="#888888"/>
<path d="M9.22627 7.14755C9.14353 7.22512 9.09698 7.33371 9.09698 7.43197C9.09698 7.53022 9.14353 7.63882 9.22627 7.71639L9.35038 7.84567H13.2237C16.9522 7.84567 17.1073 7.8405 17.2211 7.74742C17.3917 7.60779 17.3917 7.25614 17.2211 7.11652C17.1073 7.02344 16.9522 7.01826 13.2237 7.01826H9.35038L9.22627 7.14755Z" fill="#888888"/>
<path d="M6.94572 10.6485L6.20105 11.3828L5.87009 11.0622C5.48741 10.6899 5.32193 10.6537 5.09439 10.8761C4.841 11.1346 4.89271 11.2639 5.49258 11.8638C6.24242 12.6084 6.139 12.6343 7.29737 11.4759C7.80415 10.9743 8.23337 10.5089 8.24889 10.4468C8.31611 10.1934 8.09892 9.91419 7.83518 9.91419C7.7059 9.91419 7.5611 10.0331 6.94572 10.6485Z" fill="#888888"/>
<path d="M9.22627 11.2846C9.14353 11.3622 9.09698 11.4708 9.09698 11.569C9.09698 11.6673 9.14353 11.7759 9.22627 11.8534L9.35038 11.9827H13.2237C16.9522 11.9827 17.1073 11.9775 17.2211 11.8845C17.3917 11.7448 17.3917 11.3932 17.2211 11.2536C17.1073 11.1605 16.9522 11.1553 13.2237 11.1553H9.35038L9.22627 11.2846Z" fill="#888888"/>
<path d="M5.45113 13.7099C5.23911 13.803 5.02191 14.0667 4.98571 14.2736C4.96503 14.3667 4.95986 14.8838 4.9702 15.432C4.98571 16.5179 4.99605 16.5593 5.34253 16.8127C5.47699 16.9161 5.55455 16.9213 6.61467 16.9213C7.67479 16.9213 7.75236 16.9161 7.88681 16.8127C8.23846 16.549 8.24363 16.5386 8.24363 15.2923C8.24363 14.2322 8.23846 14.1547 8.13503 14.0202C7.87647 13.6737 7.85061 13.6634 6.67673 13.653C5.86483 13.6427 5.57007 13.653 5.45113 13.7099ZM7.44208 15.2923V16.1198H6.61467H5.78726V15.2923V14.4649H6.61467H7.44208V15.2923Z" fill="#888888"/>
<path d="M9.22627 15.0079C9.14353 15.0855 9.09698 15.1941 9.09698 15.2923C9.09698 15.3906 9.14353 15.4992 9.22627 15.5768L9.35038 15.706H13.2237C16.9522 15.706 17.1073 15.7009 17.2211 15.6078C17.3917 15.4682 17.3917 15.1165 17.2211 14.9769C17.1073 14.8838 16.9522 14.8786 13.2237 14.8786H9.35038L9.22627 15.0079Z" fill="#888888"/>
<path d="M5.45113 18.2607C5.23911 18.3538 5.02191 18.6175 4.98571 18.8243C4.96503 18.9174 4.95986 19.4346 4.9702 19.9827C4.98571 21.0687 4.99605 21.1101 5.34253 21.3634C5.47699 21.4669 5.55455 21.472 6.61467 21.472C7.67479 21.472 7.75236 21.4669 7.88681 21.3634C8.23846 21.0997 8.24363 21.0894 8.24363 19.8431C8.24363 18.783 8.23846 18.7054 8.13503 18.5709C7.87647 18.2245 7.85061 18.2141 6.67673 18.2038C5.86483 18.1934 5.57007 18.2038 5.45113 18.2607ZM7.44208 19.8431V20.6705H6.61467H5.78726V19.8431V19.0157H6.61467H7.44208V19.8431Z" fill="#888888"/>
<path d="M9.22627 19.5587C9.14353 19.6362 9.09698 19.7448 9.09698 19.8431C9.09698 19.9413 9.14353 20.0499 9.22627 20.1275L9.35038 20.2568H13.2237C16.9522 20.2568 17.1073 20.2516 17.2211 20.1585C17.3917 20.0189 17.3917 19.6673 17.2211 19.5276C17.1073 19.4346 16.9522 19.4294 13.2237 19.4294H9.35038L9.22627 19.5587Z" fill="#888888"/>
</svg>
