<svg width="30" height="26" viewBox="0 0 30 26" fill="none" xmlns="http://www.w3.org/2000/svg">
<path d="M4.27734 0.244143C4.01367 0.378908 3.98438 0.519533 3.98438 1.87305V3.14453L3.77344 3.17969C3.38086 3.25586 3.33984 3.34961 3.33984 4.23438V5.01953L2.27344 5.04297C1.24219 5.06055 1.18945 5.06641 0.908203 5.21875C0.5625 5.40039 0.357422 5.61133 0.169922 5.96875L0.0292969 6.23242V15.4023V24.5723L0.152344 24.8418C0.310547 25.1816 0.615234 25.4863 0.972656 25.6621L1.25977 25.8027H15H28.7402L29.0098 25.6797C29.3496 25.5215 29.6895 25.1816 29.8477 24.8418L29.9707 24.5723V15.4023V6.23242L29.8125 5.93946C29.6309 5.59375 29.4199 5.38867 29.0625 5.20117C28.8164 5.07227 28.7168 5.06055 27.7324 5.04297L26.6602 5.01953V4.23438C26.6602 3.34961 26.6191 3.25586 26.2266 3.18555L26.0215 3.14453L26.0039 1.80274C25.9863 0.501955 25.9805 0.460939 25.8516 0.332033C25.7227 0.197268 25.7109 0.197268 24.0469 0.197268H22.3711L22.2598 0.337893C22.1602 0.460939 22.1484 0.583986 22.1484 1.8086V3.13867L21.9199 3.17969C21.5098 3.24414 21.4453 3.39649 21.4453 4.27539V5.03125H15H8.55469V4.27539C8.55469 3.39649 8.49023 3.24414 8.08008 3.17969L7.85156 3.13867V1.8086C7.85156 0.583986 7.83984 0.460939 7.74023 0.337893L7.62891 0.197268L6.02344 0.179689C4.81641 0.167971 4.38867 0.185549 4.27734 0.244143ZM6.97266 2.13086V3.15625H5.94727H4.92188V2.13086V1.10547H5.94727H6.97266V2.13086ZM25.0781 2.13086V3.15625H24.0527H23.0273V2.13086V1.10547H24.0527H25.0781V2.13086ZM7.61719 4.5625V5.03125H5.91797H4.21875V4.5625V4.09375H5.91797H7.61719V4.5625ZM25.7812 4.5625V5.03125H24.082H22.3828V4.5625V4.09375H24.082H25.7812V4.5625ZM28.7109 6.05664C29.0156 6.21485 29.0625 6.39063 29.0625 7.375V8.25391H15H0.9375V7.375C0.9375 6.70117 0.960938 6.44922 1.02539 6.32031C1.21875 5.94531 0.117188 5.97461 14.9883 5.96875C26.9883 5.96875 28.5586 5.98047 28.7109 6.05664ZM29.0625 15.4316V21.6719H15H0.9375V15.4316V9.19141H15H29.0625V15.4316ZM29.0625 23.4883V24.4258L28.8633 24.6484L28.6641 24.8652H15H1.33594L1.13672 24.6484L0.9375 24.4258V23.4883V22.5508H15H29.0625V23.4883Z" fill="#1843A8"/>
<path d="M15.2754 10.7266C15.0234 10.9902 11.2793 15.8184 11.2266 15.9531C11.1504 16.1582 11.2324 16.3867 11.4258 16.4863C11.5605 16.5566 11.8418 16.5742 12.832 16.5742C13.9629 16.5742 14.0625 16.5801 14.0625 16.6738C14.0625 16.7324 13.9805 17.4883 13.8809 18.3496C13.7109 19.8086 13.7051 19.9258 13.793 20.0605C13.9043 20.2305 14.1387 20.3008 14.3379 20.2305C14.4141 20.2012 15.3867 19.0469 16.6406 17.4941C18.9434 14.6406 18.9434 14.6406 18.6973 14.3418C18.5859 14.2012 18.5742 14.2012 17.2266 14.1836L15.8672 14.166L15.9023 13.7148C15.9199 13.4687 15.9668 12.7305 16.002 12.0742L16.0723 10.8848L15.9375 10.7441C15.7559 10.5508 15.457 10.5449 15.2754 10.7266ZM15 13.4453C14.918 14.6641 14.9238 14.7812 15.0527 14.9394C15.1641 15.0742 15.1992 15.0801 16.2598 15.1094L17.3555 15.1387L16.1133 16.6797C15.4277 17.5234 14.8594 18.209 14.8418 18.1973C14.8301 18.1855 14.877 17.7344 14.9414 17.2012C15.0879 16.0117 15.0879 15.9766 14.9473 15.8066C14.8359 15.6719 14.8066 15.666 13.7227 15.6367L12.6152 15.6074L13.8164 14.0664C14.4785 13.2226 15.0293 12.543 15.041 12.5547C15.0527 12.5664 15.0352 12.9648 15 13.4453Z" fill="#1843A8"/>
<path d="M22.8574 10.9258C22.7461 11.0664 22.7344 11.1602 22.7344 11.9805V12.8828H21.8027H20.8652L20.748 13.0352C20.5898 13.2344 20.5898 13.4102 20.748 13.6094L20.8652 13.7617H21.8027H22.7344V14.6641C22.7344 15.4844 22.7461 15.5781 22.8574 15.7188C23.0039 15.9063 23.2969 15.9238 23.502 15.7598C23.6367 15.6484 23.6426 15.6133 23.6602 14.7051L23.6777 13.7617H24.5801C25.3652 13.7617 25.4941 13.75 25.6113 13.6504C25.7988 13.498 25.7988 13.1465 25.6113 12.9941C25.4941 12.8945 25.3652 12.8828 24.5801 12.8828H23.6777L23.6602 11.9395C23.6426 11.0313 23.6367 10.9961 23.502 10.8848C23.2969 10.7207 23.0039 10.7383 22.8574 10.9258Z" fill="#1843A8"/>
<path d="M4.36522 13.293C4.20702 13.4688 4.21874 13.8086 4.38866 13.9434C4.51756 14.0488 4.66405 14.0547 6.80858 14.0547H9.08788L9.2285 13.9082C9.40428 13.7324 9.416 13.5332 9.25194 13.3281L9.13475 13.1758H6.80272C4.52928 13.1758 4.47069 13.1758 4.36522 13.293Z" fill="#1843A8"/>
</svg>
