<svg width="22" height="26" viewBox="0 0 22 26" fill="none" xmlns="http://www.w3.org/2000/svg">
<path d="M7.4707 0.091404C6.23164 0.523045 6.07422 2.24453 7.21679 2.84883L7.44531 2.9707V6.03789V9.10508L4.175 14.9246C2.37734 18.1238 0.858983 20.8406 0.798046 20.9625C0.48828 21.577 0.396874 22.5875 0.589843 23.3289C0.904687 24.5629 1.87461 25.5379 3.12891 25.8832C3.43867 25.9695 3.92109 25.9746 11 25.9746C18.0789 25.9746 18.5613 25.9695 18.8711 25.8832C20.1254 25.5379 21.0953 24.5629 21.4102 23.3289C21.6031 22.5875 21.5117 21.577 21.202 20.9625C21.141 20.8406 19.6227 18.1238 17.825 14.9246L14.5547 9.10508V6.03789L14.5598 2.9707L14.8187 2.81836C15.8648 2.21406 15.7734 0.649998 14.6613 0.13203C14.4328 0.0253887 14.3871 0.0253887 11.0762 0.0152321C7.99883 0.00507736 7.7043 0.0101547 7.4707 0.091404ZM14.3871 1.17812C14.5801 1.37617 14.5801 1.6707 14.3871 1.86875C14.25 2.00078 14.2297 2.00586 13.534 2.03125L12.818 2.05664L12.6707 2.22422C12.4777 2.4375 12.4777 2.64062 12.6707 2.8539C12.8027 3.00625 12.8484 3.02148 13.1785 3.03672L13.5391 3.05703V6.21562V9.37422L15.0625 12.0859C15.9004 13.5738 16.5859 14.7977 16.5859 14.8027C16.5859 14.8078 16.3473 14.8027 16.0578 14.7875C14.6207 14.7266 13.0414 15.077 11.4469 15.8234C10.0504 16.4734 9.1414 16.7477 8.0039 16.8645C7.39961 16.9254 6.40937 16.8949 5.87617 16.8035C5.4039 16.7223 4.5 16.4887 4.5 16.4531C4.5 16.4328 5.39375 14.8332 6.48047 12.8984L8.46094 9.37422V6.21055V3.04687H8.79101C9.08047 3.04687 9.13633 3.03164 9.28359 2.89961C9.50703 2.70156 9.51719 2.40195 9.30898 2.19375C9.17187 2.06172 9.15156 2.05664 8.46094 2.03125C7.77031 2.00586 7.75 2.00078 7.61289 1.86367C7.36406 1.61992 7.45039 1.19844 7.77539 1.06133C7.83125 1.04101 9.30898 1.02578 11.0609 1.03086L14.25 1.04101L14.3871 1.17812ZM17.0176 15.8844L17.2207 15.9199L18.5816 18.332C19.3332 19.6574 20.0644 20.9828 20.2066 21.2773L20.4707 21.8055V22.4453V23.0902L20.2574 23.5219C19.8867 24.2633 19.2164 24.7965 18.4699 24.9336C18.0992 25.0047 3.90078 25.0047 3.53008 24.9336C2.78359 24.7965 2.11328 24.2633 1.74258 23.5219L1.5293 23.0902V22.4504C1.5293 21.8207 1.53437 21.8055 1.71211 21.4297C1.84922 21.1453 3.90586 17.4484 3.96172 17.3824C3.9668 17.3773 4.11914 17.418 4.29687 17.4738C5.38867 17.8191 6.84609 17.9816 7.9582 17.8852C9.27344 17.7633 10.2637 17.4891 11.584 16.8746C12.9246 16.25 13.7016 16.0012 14.7578 15.8641C15.291 15.798 16.591 15.8082 17.0176 15.8844Z" fill="#1843A8"/>
<path d="M10.8172 8.78515C10.6547 8.85117 10.4922 9.08476 10.4922 9.24726C10.4922 9.45039 10.7258 9.69414 10.9543 9.72969C11.1117 9.75508 11.1676 9.73476 11.3098 9.60781C11.452 9.48086 11.4824 9.41992 11.4824 9.24219C11.4824 9.06445 11.452 9.00351 11.3148 8.88164C11.1473 8.73437 11.0102 8.7039 10.8172 8.78515Z" fill="#1843A8"/>
<path d="M8.48638 11.8676C7.41489 12.2535 7.10513 13.5738 7.90239 14.3711C8.21216 14.6809 8.50669 14.8027 8.9688 14.8027C9.43091 14.8027 9.72544 14.6809 10.0352 14.3711C10.345 14.0613 10.4668 13.7668 10.4668 13.3047C10.4668 12.8426 10.345 12.548 10.0352 12.2383C9.62895 11.832 9.00435 11.6848 8.48638 11.8676ZM9.32427 12.9746C9.502 13.1574 9.49692 13.457 9.30903 13.6449C9.00435 13.9547 8.48638 13.7414 8.48638 13.3098C8.48638 12.8578 8.99927 12.6496 9.32427 12.9746Z" fill="#1843A8"/>
<path d="M12.8484 11.832C12.6859 11.898 12.5234 12.1316 12.5234 12.2941C12.5234 12.4973 12.757 12.741 12.9855 12.7766C13.143 12.802 13.1988 12.7816 13.341 12.6547C13.4832 12.5277 13.5137 12.4668 13.5137 12.2891C13.5137 12.1113 13.4832 12.0504 13.3461 11.9285C13.1785 11.7812 13.0414 11.7508 12.8484 11.832Z" fill="#1843A8"/>
<path d="M4.72857 21.9832C4.41373 22.1152 4.31724 22.5418 4.55591 22.7754C4.62701 22.8465 4.76412 22.9176 4.86568 22.9328C5.01802 22.9582 5.07388 22.9379 5.21607 22.8109C5.35826 22.684 5.38873 22.623 5.38873 22.4453C5.38873 22.2676 5.35826 22.2066 5.22115 22.0848C5.05357 21.9375 4.91646 21.907 4.72857 21.9832Z" fill="#1843A8"/>
<path d="M6.75469 21.9883C6.59219 22.0543 6.42969 22.2879 6.42969 22.4504C6.42969 22.5418 6.48555 22.6586 6.57695 22.7602L6.72422 22.9277L11.9852 22.943L17.241 22.9531L17.4086 22.8059C17.5457 22.684 17.5762 22.623 17.5762 22.4453C17.5762 22.2676 17.5457 22.2066 17.4086 22.0848L17.2461 21.9375L12.0512 21.9426C9.19727 21.9426 6.81055 21.9629 6.75469 21.9883Z" fill="#1843A8"/>
</svg>
