<svg width="29" height="29" viewBox="0 0 29 29" fill="none" xmlns="http://www.w3.org/2000/svg">
<path d="M28.5469 16.3125H26.7344V15.4062H24.9219V14.7266L22.8071 13.1406H21.2969V8.15625C21.2969 7.40678 20.687 6.79688 19.9375 6.79688H19.4844V6.34375C19.4844 5.59428 18.8745 4.98438 18.125 4.98438H5.4375C4.84753 4.98438 4.34909 5.36455 4.1615 5.89062H0.453125V8.60938H4.07812V10.5053C3.55205 10.6928 3.17188 11.1913 3.17188 11.7812V14.9531H0.453125V22.2031H3.17188V22.6562C3.17188 23.4057 3.78178 24.0156 4.53125 24.0156H18.125C18.715 24.0156 19.2134 23.6355 19.401 23.1094H19.9375C20.5275 23.1094 21.0259 22.7292 21.2135 22.2031H22.8076L24.9219 20.6172V19.9375H26.7344V19.0312H28.5469V16.3125ZM18.5781 6.34375V6.79688H16.7656V10.4219H6.79688V5.89062H18.125C18.3747 5.89062 18.5781 6.09363 18.5781 6.34375ZM5.4375 5.89062H5.89062V10.4219H4.98438V6.34375C4.98438 6.09363 5.18783 5.89062 5.4375 5.89062ZM1.35938 7.70312V6.79688H4.07812V7.70312H1.35938ZM3.17188 15.8594V17.0176C2.90408 16.8617 2.59731 16.7656 2.26562 16.7656C1.93394 16.7656 1.62717 16.8617 1.35938 17.0176V15.8594H3.17188ZM3.17188 18.5781C3.17188 19.0779 2.76542 19.4844 2.26562 19.4844C1.76583 19.4844 1.35938 19.0779 1.35938 18.5781C1.35938 18.0783 1.76583 17.6719 2.26562 17.6719C2.76542 17.6719 3.17188 18.0783 3.17188 18.5781ZM1.35938 21.2969V20.1387C1.62717 20.2946 1.93394 20.3906 2.26562 20.3906C2.59731 20.3906 2.90408 20.2946 3.17188 20.1387V21.2969H1.35938ZM18.5781 22.6562C18.5781 22.9064 18.3747 23.1094 18.125 23.1094H6.79688V12.6875H5.89062V23.1094H4.53125C4.28158 23.1094 4.07812 22.9064 4.07812 22.6562V11.7812C4.07812 11.5311 4.28158 11.3281 4.53125 11.3281H15.8594V22.2031H16.7656V11.3281H18.125C18.3747 11.3281 18.5781 11.5311 18.5781 11.7812V22.6562ZM20.3906 21.75C20.3906 22.0001 20.1872 22.2031 19.9375 22.2031H19.4844V11.7812C19.4844 11.0318 18.8745 10.4219 18.125 10.4219H17.6719V7.70312H19.9375C20.1872 7.70312 20.3906 7.90613 20.3906 8.15625V21.75ZM24.0156 20.1641L22.5054 21.2969H21.2969V14.0469H22.5054L24.0156 15.1797V20.1641ZM25.8281 19.0312H24.9219V16.3125H25.8281V19.0312ZM27.6406 18.125H26.7344V17.2188H27.6406V18.125Z" fill="#1843A8"/>
</svg>
