<svg width="23" height="30" viewBox="0 0 23 30" fill="none" xmlns="http://www.w3.org/2000/svg">
<path d="M3.22852 0.351559C2.87109 0.568356 2.85938 0.638668 2.85938 2.46093V4.10156L2.70117 4.16601C1.86328 4.46484 1.20117 5.23828 1.04297 6.08789C0.960938 6.52148 0.960938 27.2285 1.04297 27.6562C1.17773 28.3594 1.71094 29.0977 2.32031 29.4316C2.95312 29.7773 2.57227 29.7656 11.9766 29.7656C17.5078 29.7656 20.7129 29.7422 20.9121 29.707C21.9199 29.5195 22.7695 28.6582 22.957 27.6387C22.998 27.4277 23.0156 24.9082 22.998 20.2324L22.9805 13.1543L22.8516 12.668C22.6934 12.0762 22.4004 11.4727 22.0488 11.0215C21.7559 10.6406 16.248 5.15039 15.8906 4.875C15.5215 4.59375 14.8711 4.28906 14.332 4.15429C13.8926 4.03711 13.6523 4.02539 11.8711 4.00195L9.89062 3.97265V2.39648C9.89062 0.644527 9.87305 0.562496 9.52148 0.351559C9.33984 0.240231 9.20508 0.234371 6.375 0.234371C3.54492 0.234371 3.41016 0.240231 3.22852 0.351559ZM8.48438 2.8125V3.98437H6.375H4.26562V2.8125V1.64062H6.375H8.48438V2.8125ZM13.8926 5.47851C14.1094 5.52539 14.4785 5.66015 14.7129 5.77734C15.0996 5.97656 15.3926 6.25195 18.0703 8.92969C20.748 11.6074 21.0234 11.9004 21.2227 12.2871C21.6211 13.0723 21.6094 12.75 21.6094 20.4785C21.6094 27.1348 21.6035 27.4629 21.498 27.6855C21.3691 27.9668 21.1816 28.1484 20.8945 28.2715C20.7012 28.3477 19.6992 28.3594 11.9883 28.3594C3.66797 28.3594 3.28711 28.3535 3.06445 28.248C2.7832 28.1191 2.60156 27.9316 2.47852 27.6445C2.40234 27.4512 2.39062 26.2676 2.39062 16.875C2.39062 7.48242 2.40234 6.29883 2.47852 6.10547C2.60156 5.81836 2.7832 5.63086 3.06445 5.50195C3.28711 5.39648 3.5625 5.39062 8.39648 5.39062C12.5977 5.39062 13.5645 5.4082 13.8926 5.47851Z" fill="#1843A8"/>
<path d="M12.293 7.83984C11.7949 7.96874 11.4551 8.17968 11.0742 8.57812C10.3242 9.36913 10.166 10.4883 10.6641 11.5019C10.8223 11.8125 11.1504 12.1699 12.9902 14.0098C14.8301 15.8496 15.1875 16.1777 15.498 16.3359C16.5586 16.8516 17.7305 16.6582 18.5273 15.8203C19.3008 15.0117 19.4648 13.9043 18.9609 12.873C18.8027 12.5625 18.4746 12.2109 16.6348 10.3711C14.3555 8.09179 14.2324 7.99218 13.5176 7.82226C13.043 7.71093 12.7676 7.71679 12.293 7.83984ZM13.5117 9.31054C13.834 9.48046 17.6602 13.3359 17.7715 13.6055C18.0645 14.3203 17.5781 15.1465 16.8164 15.2227C16.248 15.2754 16.2363 15.2695 14.0625 13.1016C12.9551 12.0059 12 11.0039 11.9355 10.8867C11.8125 10.6465 11.7891 10.1836 11.8887 9.91992C11.9707 9.70312 12.2754 9.38085 12.498 9.28124C12.7617 9.16406 13.2539 9.18164 13.5117 9.31054Z" fill="#1843A8"/>
<path d="M7.92773 17.2148C7.72266 17.3438 6.9375 18.1582 6.44531 18.7617C5.34375 20.1152 4.73438 21.4512 4.73438 22.5117C4.73438 22.9219 4.91602 23.6367 5.12109 24.0645C5.80078 25.4473 7.39453 26.2324 8.90039 25.9336C10.459 25.6172 11.5781 24.3809 11.7422 22.7754C11.8828 21.4043 11.0156 19.7109 9.19922 17.8008C8.51953 17.0918 8.30273 16.9863 7.92773 17.2148ZM8.64258 19.2539C9.46289 20.1856 10.0605 21.1406 10.2715 21.8789C10.4121 22.3652 10.3711 22.9746 10.166 23.3906C9.9668 23.7949 9.53906 24.2168 9.12891 24.4219C8.84766 24.5625 8.73633 24.5801 8.25 24.5801C7.76367 24.5801 7.65234 24.5625 7.37109 24.4219C6.66797 24.0762 6.19922 23.4023 6.15234 22.6523C6.09375 21.7383 6.66797 20.6016 7.85742 19.2539C8.04492 19.043 8.2207 18.8672 8.25 18.8672C8.2793 18.8672 8.45508 19.043 8.64258 19.2539Z" fill="#1843A8"/>
</svg>
