<svg width="24" height="30" viewBox="0 0 24 30" fill="none" xmlns="http://www.w3.org/2000/svg">
<path d="M10.8867 0.0644531C7.3418 0.457031 4.32422 2.30273 2.41992 5.23242C0.480469 8.2207 0.0644531 12.0586 1.31836 15.4102C1.9043 16.9688 2.77734 18.3105 4.01367 19.541L4.69336 20.2148H4.01953C2.91797 20.2148 2.25586 20.4668 1.56445 21.1523C1.1543 21.5566 0.896484 21.9902 0.708984 22.5938C0.615234 22.9043 0.603516 23.168 0.603516 25.1074C0.603516 27.1816 0.609375 27.293 0.732422 27.6855C1.04883 28.6934 1.88086 29.5254 2.88867 29.8418L3.29883 29.9707H12H20.7012L21.1113 29.8418C22.1191 29.5254 22.9219 28.7227 23.2559 27.7031C23.3965 27.2812 23.3965 27.2402 23.3965 25.1074C23.3965 22.7168 23.3906 22.6523 23.0039 21.8906C22.7754 21.4395 22.166 20.8301 21.6914 20.584C20.9473 20.1914 21.3926 20.209 13.4238 20.209H6.20508L5.85938 19.9805C5.66602 19.8516 5.29102 19.5527 5.02148 19.3184C3.36914 17.8711 2.16211 15.8086 1.69336 13.623C1.34766 12.0176 1.39453 10.248 1.82813 8.63672C2.49023 6.18164 4.08398 4.00195 6.25781 2.57812C9.29883 0.585938 13.2656 0.328125 16.541 1.9043C21.8145 4.44727 24.0176 10.7051 21.4922 15.9727C21.082 16.834 20.6602 17.4785 19.9629 18.3105C19.3945 18.9961 19.3477 19.1309 19.5879 19.3652C19.8633 19.6406 20.0391 19.5527 20.6719 18.8145C23.2676 15.7734 24.0703 11.6484 22.8164 7.82227C21.4746 3.76172 17.9648 0.796875 13.7109 0.140625C12.9902 0.0292969 11.5313 -0.0117188 10.8867 0.0644531ZM4.30078 21.2402C4.21875 21.3516 4.08398 21.5332 4.00195 21.6387C3.80859 21.9023 3.80859 22.1602 4.00781 22.3184C4.31836 22.5645 4.48242 22.459 5.05078 21.6738L5.51367 21.0352H6.76758C7.45313 21.0352 8.01563 21.0469 8.01563 21.0645C8.01563 21.082 7.78125 21.4336 7.48828 21.8496C6.82031 22.8047 6.80859 22.8398 6.92578 23.0742C7.03125 23.2852 7.25391 23.3672 7.45313 23.2734C7.5293 23.2383 7.92773 22.7227 8.34375 22.125L9.09961 21.041L10.3477 21.0352H11.5957L11.2969 21.457C10.957 21.9375 10.9277 22.1367 11.1563 22.3184C11.4668 22.5645 11.6309 22.459 12.2051 21.6738L12.668 21.0352H13.916C14.6016 21.0352 15.1641 21.0527 15.1641 21.0703C15.1641 21.0879 14.9238 21.4453 14.6367 21.8613C14.0098 22.7578 13.9805 22.8223 14.0801 23.0742C14.1738 23.2852 14.3965 23.3672 14.6074 23.2734C14.6777 23.2383 15.0762 22.7344 15.4863 22.1484C15.8965 21.5625 16.2598 21.0703 16.3008 21.0586C16.3359 21.0469 16.9043 21.041 17.5547 21.0469L18.7383 21.0645L18.4453 21.4688C18.2871 21.6914 18.1523 21.9316 18.1523 22.0137C18.1523 22.2949 18.5566 22.5352 18.7852 22.3887C18.8262 22.3652 19.0781 22.0547 19.3418 21.7031C19.8867 20.9824 19.9219 20.9648 20.584 21.0938C21.5039 21.2754 22.2773 22.0195 22.4883 22.9219C22.5176 23.0625 22.5469 23.5078 22.5469 23.918V24.668H14.3848C6.25195 24.668 6.22266 24.668 6.09375 24.7852C5.93555 24.9375 5.92969 25.1953 6.07617 25.377L6.1875 25.5176L14.3672 25.5352L22.5469 25.5469V26.3027C22.5469 27.2227 22.4355 27.6562 22.0605 28.166C21.6211 28.7578 21.0527 29.0625 20.2969 29.1035L19.8223 29.1328L19.125 28.1191C18.7383 27.5625 18.375 27.0586 18.3164 27C18.1816 26.8652 17.877 26.8652 17.7305 26.9941C17.5078 27.1934 17.5898 27.4219 18.1816 28.2715C18.4863 28.7109 18.7383 29.0801 18.7383 29.0977C18.7383 29.1094 18.1758 29.1211 17.4902 29.1211H16.2422L15.7441 28.459C15.2871 27.8496 15.2344 27.8027 15.0352 27.7852C14.877 27.7734 14.7832 27.8027 14.7012 27.8848C14.5078 28.0781 14.5488 28.2832 14.8711 28.7227L15.1641 29.1211H13.916H12.668L11.9648 28.1133C11.584 27.5566 11.2207 27.0586 11.168 27C11.0273 26.8535 10.6992 26.8652 10.5645 27.0117C10.3652 27.2344 10.4297 27.416 10.9863 28.2129C11.2734 28.6348 11.5313 29.0098 11.5547 29.0449C11.5898 29.1035 11.3262 29.1211 10.3418 29.1211H9.08203L8.58984 28.459C8.11523 27.8203 8.09766 27.8027 7.85742 27.7852C7.66406 27.7734 7.59961 27.791 7.52344 27.9023C7.36523 28.125 7.41211 28.3184 7.72266 28.7344L8.02148 29.1211H6.76758H5.51367L4.79297 28.084C4.40039 27.5098 4.03125 27.0059 3.98438 26.9648C3.82031 26.8359 3.52734 26.877 3.38672 27.0527C3.21094 27.2754 3.25781 27.3926 3.84961 28.2422C4.13086 28.6465 4.38281 29.0098 4.41211 29.0566C4.45313 29.1211 4.35938 29.1328 3.84961 29.1094C3.3457 29.0859 3.17578 29.0566 2.88867 28.9219C2.21484 28.6172 1.78711 28.125 1.56445 27.416C1.47656 27.1465 1.45313 26.8828 1.45313 26.3086V25.5527L2.9707 25.5352C4.36523 25.5176 4.5 25.5059 4.61133 25.4062C4.76953 25.2598 4.77539 24.9434 4.61719 24.7852C4.50586 24.6738 4.42383 24.668 2.97656 24.668H1.45313V23.918C1.45313 22.7754 1.62891 22.2598 2.20898 21.7207C2.71289 21.252 3.24609 21.0469 4.02539 21.041L4.45313 21.0352L4.30078 21.2402Z" fill="#1843A8"/>
<path d="M10.9629 1.62305C10.8105 1.65234 10.5938 1.9043 10.5938 2.05078C10.5938 2.10938 10.6465 2.2207 10.7109 2.30273L10.8281 2.44922H12H13.1719L13.2891 2.30273C13.4414 2.10352 13.4355 1.97461 13.2656 1.77539L13.125 1.61133L12.1055 1.59961C11.5488 1.59961 11.0332 1.60547 10.9629 1.62305Z" fill="#1843A8"/>
<path d="M11.2676 3.63282C8.27344 3.89063 5.56055 6.03516 4.58789 8.92383C4.42383 9.42188 4.26562 10.1191 4.26562 10.3711C4.26562 10.6113 4.44141 10.7988 4.66406 10.7988C4.94531 10.7988 5.06836 10.6523 5.14453 10.207C5.25 9.57422 5.60742 8.59571 5.92383 8.03907C6.93164 6.28125 8.41406 5.15625 10.3945 4.65235C10.9512 4.51172 11.1445 4.48829 11.9414 4.48829C13.4414 4.48243 14.625 4.81641 15.7793 5.58399C17.3965 6.64454 18.4863 8.27344 18.8613 10.1953C18.9844 10.8047 18.9551 12.1699 18.8086 12.832C18.5039 14.25 17.8008 15.4981 16.7578 16.4766C13.6816 19.3652 8.87109 18.8965 6.35156 15.4688C5.80078 14.7246 5.32031 13.5996 5.14453 12.6445C5.0625 12.1758 4.95117 12.0527 4.64062 12.082C4.18359 12.1172 4.16016 12.5508 4.56445 13.8106C4.94531 15.0059 5.57227 16.0195 6.49219 16.9336C7.59961 18.041 8.83008 18.7148 10.3594 19.0606C11.1211 19.2305 12.8379 19.2422 13.582 19.0781C16.7637 18.3867 19.1719 15.8789 19.7109 12.6914C19.8633 11.7715 19.8047 10.377 19.5703 9.49219C19.1836 8.02149 18.5039 6.85547 17.4375 5.82422C17.1738 5.56641 16.8047 5.24414 16.6289 5.11524C15.1348 4.00782 13.1836 3.47461 11.2676 3.63282Z" fill="#1843A8"/>
<path d="M11.3555 5.33789C9.85547 5.48437 8.28516 6.30469 7.3418 7.43555C6.38086 8.58398 5.90625 9.89648 5.90625 11.4141C5.90625 12.4746 6.09375 13.2773 6.5625 14.2031C6.87305 14.8242 7.07227 15.1113 7.56445 15.627C8.73633 16.8574 10.2832 17.5195 12 17.5195C13.7168 17.5195 15.2637 16.8574 16.4355 15.627C16.957 15.0762 17.1621 14.7773 17.5078 14.0449C17.9238 13.166 18.041 12.6797 18.0762 11.6309C18.0996 10.8984 18.0879 10.6582 17.9883 10.1895C17.8535 9.53906 17.5547 8.76562 17.2207 8.20898C16.0371 6.24023 13.7285 5.10351 11.3555 5.33789ZM12.8965 6.24023C13.3242 6.3164 14.0156 6.52148 14.1035 6.60351C14.1211 6.61523 13.9863 6.77344 13.8047 6.96094C13.3887 7.38867 13.3301 7.50586 13.377 7.80469L13.418 8.03906L12.8145 8.64844C12.2695 9.19336 12.1875 9.25781 12 9.25781C11.8125 9.25781 11.7305 9.19336 11.1855 8.64844L10.582 8.03906L10.623 7.80469C10.6699 7.50586 10.582 7.33008 10.1895 6.94336C10.0254 6.78515 9.89062 6.63867 9.89062 6.62109C9.89062 6.55664 10.6289 6.32226 11.0742 6.24023C11.6543 6.13476 12.293 6.13476 12.8965 6.24023ZM9.43945 7.42969L9.77344 7.76953L9.75586 8.10351L9.74414 8.4375L10.2949 8.98828L10.8398 9.53906L10.4766 9.90234L10.1133 10.2656L9.5332 9.69726L8.95312 9.12305L8.67188 9.1582C8.40234 9.1875 8.39062 9.18164 8.02148 8.84766L7.64648 8.50781L7.75195 8.33789C7.98633 7.98047 8.92383 7.08984 9.06445 7.08984C9.08789 7.08984 9.25195 7.24219 9.43945 7.42969ZM15.2637 7.3125C15.5625 7.55273 16.1836 8.19726 16.2715 8.37305C16.3184 8.46094 16.2656 8.54297 15.9961 8.83594L15.6562 9.19922L15.3516 9.1582L15.0469 9.12305L14.4668 9.69726L13.8867 10.2656L13.5234 9.89648L13.166 9.5332L13.7109 8.98242L14.2559 8.4375L14.2441 8.10351L14.2266 7.76953L14.5605 7.42969C14.748 7.24219 14.9121 7.08984 14.9355 7.08984C14.959 7.08984 15.1055 7.18945 15.2637 7.3125ZM8.33789 10.0195H8.68945L9.25781 10.5879C9.79102 11.1211 9.83203 11.1738 9.83203 11.3965C9.83203 11.6133 9.79102 11.666 9.24023 12.2227C8.67773 12.7852 8.63086 12.8203 8.44922 12.791C8.13281 12.7383 7.96289 12.8203 7.57031 13.1953L7.19531 13.5527L7.10156 13.3301C6.64453 12.2285 6.64453 10.5645 7.10742 9.46875L7.20703 9.24023L7.59961 9.63281L7.99219 10.0195H8.33789ZM16.9688 9.69726C17.1797 10.3301 17.2383 10.7344 17.2324 11.4844C17.2266 12.2227 17.127 12.7793 16.8984 13.3301L16.8047 13.5527L16.4297 13.1953C16.0371 12.8203 15.8672 12.7383 15.5508 12.791C15.3691 12.8203 15.3223 12.7852 14.7598 12.2227C14.209 11.6719 14.168 11.6133 14.168 11.3965C14.168 11.1797 14.209 11.1211 14.7363 10.5937L15.3105 10.0195H15.6621H16.0195L16.3945 9.63867C16.5996 9.42773 16.7871 9.28125 16.8105 9.30469C16.834 9.32812 16.9043 9.50391 16.9688 9.69726ZM12.5566 10.248C13.4824 10.6699 13.5352 12.041 12.6445 12.5391C12.4395 12.6504 12.2988 12.6855 12 12.6855C11.3086 12.6855 10.7988 12.2461 10.7285 11.5957C10.6465 10.7578 11.1855 10.1367 12 10.1367C12.1875 10.1367 12.4219 10.1836 12.5566 10.248ZM10.6289 13.0957L10.8574 13.2949L10.3008 13.8574L9.74414 14.4141L9.75586 14.7422C9.77344 15.0703 9.77344 15.0703 9.42773 15.4277L9.08203 15.7852L8.85938 15.6152C8.47852 15.3281 8.08008 14.9355 7.85742 14.6309L7.64648 14.3437L7.99219 13.998L8.33203 13.6523H8.68945H9.04102L9.59766 13.1016L10.1484 12.5449L10.2773 12.7207C10.3477 12.8203 10.5059 12.9844 10.6289 13.0957ZM15.3105 13.6523H15.668L16.0078 13.998L16.3535 14.3437L16.1426 14.6309C15.9199 14.9355 15.5215 15.3281 15.1523 15.6094L14.9355 15.7734L14.5781 15.4277L14.2266 15.0762L14.2441 14.748L14.2559 14.4141L13.7051 13.8633L13.1543 13.3066L13.4824 12.9785C13.6641 12.8027 13.8164 12.6211 13.8164 12.5801C13.8164 12.5449 14.0742 12.7676 14.3906 13.084L14.959 13.6523H15.3105ZM12.832 14.1621L13.4004 14.7363L13.3887 15.0703L13.377 15.4043L13.7812 15.8145L14.1797 16.2187L13.8398 16.3418C13.0371 16.6465 11.8184 16.752 11.0332 16.5879C10.5527 16.4883 9.96094 16.2949 9.91406 16.2187C9.89062 16.1895 10.043 15.9902 10.248 15.7852L10.623 15.4043L10.6113 15.0703L10.5996 14.7363L11.168 14.1621C11.7188 13.6113 11.7422 13.5937 12 13.5937C12.2578 13.5937 12.2812 13.6113 12.832 14.1621Z" fill="#1843A8"/>
</svg>
