<svg width="30" height="30" viewBox="0 0 30 30" fill="none" xmlns="http://www.w3.org/2000/svg">
<path d="M13.793 0.0585957C11.8711 0.228518 10.084 0.726564 8.4082 1.55274C4.78125 3.33985 2.06836 6.44531 0.796875 10.2539C0.234375 11.959 0.0351562 13.207 0.0351562 15.0293C0.0410156 17.3965 0.527344 19.5234 1.55273 21.5918C3.75 26.0566 7.88086 29.0684 12.8613 29.8359C13.9453 30 15.9141 30.0117 16.9629 29.8594C20.3906 29.3613 23.373 27.8672 25.6992 25.4824C28.002 23.1094 29.3789 20.3027 29.8594 16.9629C30 15.9961 30 14.0039 29.8594 13.0371C28.9687 6.85547 24.6504 2.00977 18.6504 0.468752C17.2617 0.105471 15.1699 -0.0703106 13.793 0.0585957ZM16.3594 1.06055C16.6934 1.09571 16.9687 1.13086 16.9805 1.13672C16.9863 1.14844 16.9453 1.29492 16.8809 1.47071C16.4883 2.60742 16.1602 4.30664 16.0488 5.75977C15.9551 7.00196 16.0078 9.71485 16.1426 10.0781C16.2598 10.4063 16.582 10.7461 16.9629 10.9395C17.3672 11.1445 17.9121 11.543 18.1934 11.8359C18.3223 11.9707 18.5625 12.1465 18.7207 12.2344C19.2246 12.4922 19.4941 12.457 21.1816 11.9238C23.8359 11.0918 25.4414 10.3418 27.0527 9.19336C27.3105 9 27.5391 8.84766 27.5566 8.84766C27.6797 8.84766 28.4531 10.9805 28.6523 11.877C28.8223 12.6445 28.8398 12.5977 28.3477 12.5977C27.6621 12.5977 26.3965 12.709 25.6055 12.8379C24.5391 13.0078 23.8184 13.1953 22.207 13.7227C19.7754 14.5195 19.6875 14.584 19.4473 15.75C19.3828 16.0605 19.2363 16.5293 19.1191 16.7871C18.7148 17.7012 18.6855 17.8477 18.8145 18.3105C18.9023 18.6328 20.2852 20.6484 21.1465 21.7031C21.9316 22.6758 23.1387 23.8359 24.1816 24.6152L24.7324 25.0313L24.5977 25.1777C24.3574 25.4414 23.3027 26.2793 22.7637 26.6426C22.1836 27.0293 21.5684 27.3926 21.5391 27.3574C21.5332 27.3457 21.4277 27.0527 21.3105 26.707C20.6309 24.7148 19.8809 23.3789 18.1113 21.0117C17.2969 19.9219 17.1504 19.752 16.8691 19.5996C16.5703 19.4355 16.5234 19.4238 16.0254 19.4473C15.3574 19.4766 14.6426 19.4766 13.9746 19.4473C13.4766 19.4238 13.4297 19.4355 13.1309 19.5996C12.8496 19.7578 12.7031 19.9219 11.8828 21.0234C11.3672 21.709 10.7812 22.5293 10.582 22.8398C9.79101 24.041 9.15234 25.3535 8.68945 26.707C8.57226 27.0527 8.4668 27.3457 8.46094 27.3574C8.4375 27.3867 7.82812 27.0352 7.32422 26.7012C6.69141 26.2734 6.06445 25.7871 5.63086 25.3887L5.25 25.043L5.68945 24.7148C6.79687 23.8945 8.08594 22.6699 8.90039 21.6504C9.41601 21.0059 10.916 18.8965 11.0801 18.5742C11.1914 18.3691 11.2207 18.2227 11.2148 17.9004C11.2148 17.543 11.1797 17.4258 10.9687 16.9863C10.834 16.7109 10.6816 16.2891 10.6289 16.0488C10.4297 15.1699 10.3711 15 10.1543 14.7598C9.86719 14.4375 9.7207 14.373 8.13281 13.834C5.57227 12.9727 4.33594 12.7207 2.15039 12.6211C1.0957 12.5742 1.17773 12.6504 1.34766 11.877C1.54687 10.9746 2.32031 8.84766 2.44922 8.84766C2.46094 8.84766 2.64844 8.97656 2.86523 9.13477C3.44531 9.5625 4.41211 10.1426 5.19141 10.5352C6.35742 11.1152 6.95508 11.3496 8.90625 11.959C10.8164 12.5508 11.0508 12.5449 11.8184 11.8242C12.2637 11.4082 12.6035 11.1621 13.0371 10.9395C13.4062 10.7578 13.7988 10.3359 13.8867 10.043C13.9863 9.68555 14.0332 6.79688 13.9512 5.74219C13.8398 4.35352 13.5 2.57813 13.125 1.49414C13.0605 1.30664 13.0137 1.14844 13.0254 1.13672C13.0312 1.13086 13.2598 1.09571 13.5352 1.06641C14.2441 0.990236 15.6562 0.984377 16.3594 1.06055ZM12.2344 1.91602C12.5215 2.80664 12.5449 2.74805 11.9238 2.90625C10.2773 3.32227 8.66601 4.11914 7.26562 5.20313C6.25195 5.99414 4.97461 7.42383 4.36523 8.4668L4.14844 8.8418L3.87305 8.66016C3.43359 8.36133 2.92969 7.96289 2.92969 7.91602C2.92969 7.84571 3.68555 6.73242 4.03125 6.29883C4.48828 5.71875 5.44336 4.75196 6.06445 4.23047C7.50586 3.02344 9.54492 1.96289 11.3965 1.46485C12.0586 1.28906 12.0234 1.26563 12.2344 1.91602ZM19.3652 1.70508C22.3359 2.6836 24.9316 4.66406 26.6836 7.29492C26.8945 7.61133 27.0703 7.89258 27.0703 7.91602C27.0703 7.96289 26.5664 8.36133 26.127 8.66016L25.8574 8.8418L25.5234 8.30274C23.9238 5.71875 21.1992 3.73242 18.1641 2.92969C17.4434 2.74219 17.4727 2.8125 17.7656 1.91016L17.959 1.33594L18.1992 1.3711C18.334 1.38867 18.8613 1.54102 19.3652 1.70508ZM12.7148 3.76172C12.7148 3.77344 12.7734 4.17188 12.8379 4.65821C12.9316 5.34375 12.9668 5.97656 12.9902 7.5293C13.0254 9.89649 13.043 9.83203 12.4746 10.1309C11.9941 10.3828 11.6074 10.6641 11.1504 11.0859C10.9219 11.2969 10.7344 11.4258 10.6465 11.4258C10.4648 11.4258 7.88672 10.6055 7.13672 10.3066C6.33398 9.99024 5.03906 9.36914 5.03906 9.29883C5.03906 9.19922 5.69531 8.23242 6.12891 7.69336C7.34766 6.19336 9.09961 4.9336 10.916 4.25391C11.7012 3.96094 12.709 3.68555 12.7148 3.76172ZM17.9707 3.89649C20.1797 4.48828 22.1484 5.71289 23.6543 7.43555C24.0879 7.92774 24.9609 9.17578 24.9609 9.29297C24.9609 9.36914 23.7012 9.97852 22.8809 10.3008C21.9141 10.6816 19.5703 11.4258 19.3477 11.4258C19.2715 11.4258 19.0488 11.2676 18.8027 11.0449C18.334 10.6172 18.0762 10.4297 17.5078 10.1133C17.1855 9.9375 17.1035 9.85547 17.0449 9.68555C16.9277 9.33399 17.0098 5.74805 17.1621 4.65821C17.2266 4.17188 17.2852 3.77344 17.2852 3.76172C17.2852 3.72656 17.4785 3.76172 17.9707 3.89649ZM2.53711 14.6016C2.44336 17.5137 3.29297 20.2031 5.03906 22.5293C5.26172 22.8164 5.50781 23.1211 5.58984 23.1973C5.67187 23.2793 5.74219 23.3672 5.74219 23.3965C5.74219 23.4609 5.55469 23.6133 4.99219 24.0059L4.54687 24.3164L4.38281 24.123C2.70117 22.1836 1.53516 19.6348 1.14258 17.0508C1.02539 16.2832 0.966797 14.7832 1.01953 14.1035L1.06641 13.5938H1.81641H2.56641L2.53711 14.6016ZM28.9687 13.9512C29.0215 14.502 29.0098 15.6035 28.9395 16.3242C28.6816 18.9785 27.5801 21.7031 25.9629 23.6953C25.7812 23.918 25.5937 24.1465 25.5469 24.2109C25.459 24.3164 25.4414 24.3105 25.0137 24.0117C24.4453 23.6133 24.2578 23.4609 24.2578 23.3965C24.2578 23.3672 24.3281 23.2793 24.4102 23.1973C24.9023 22.7402 25.9219 21.1582 26.373 20.1563C27.1641 18.3926 27.4512 16.9805 27.4512 14.8945V13.5938H28.1895H28.9277L28.9687 13.9512ZM4.3125 13.8281C5.39648 14.0215 6.35742 14.2852 7.85156 14.7773C9.33984 15.2754 9.55078 15.3867 9.55078 15.6621C9.55078 15.9492 9.83789 16.9336 10.043 17.3496C10.1602 17.584 10.2539 17.8477 10.2539 17.9355C10.2539 18.3047 7.96289 21.334 6.86719 22.4063L6.51562 22.7461L6.31055 22.5234C5.6543 21.791 5.0918 20.9297 4.59961 19.9043C3.84375 18.3223 3.51562 16.8633 3.51562 15.0879C3.51562 14.1504 3.55078 13.7109 3.63281 13.7109C3.65039 13.7109 3.96094 13.7637 4.3125 13.8281ZM26.4492 13.9277C26.5137 14.3379 26.4844 15.9609 26.3965 16.5762C26.1797 18.0996 25.6172 19.6875 24.8613 20.918C24.5859 21.3574 23.9238 22.2656 23.6367 22.582L23.4844 22.752L23.1328 22.4063C22.0254 21.3281 19.7461 18.3105 19.7461 17.9238C19.7461 17.8359 19.8398 17.5723 19.957 17.3379C20.1621 16.9277 20.4492 15.9492 20.4492 15.6738C20.4492 15.4043 20.625 15.2988 21.7617 14.9121C22.3711 14.7012 23.1973 14.4316 23.6074 14.3145C24.2754 14.1211 26.0801 13.7227 26.3145 13.7168C26.3789 13.7109 26.4199 13.7813 26.4492 13.9277ZM14.4434 20.4551C14.8359 20.502 15.1289 20.502 15.5977 20.4492C15.9434 20.4141 16.2773 20.3965 16.3477 20.4199C16.4766 20.4609 17.7012 22.0664 18.3809 23.0859C18.9141 23.8828 19.7461 25.3301 19.7461 25.459C19.7461 25.5352 18.3281 26.0391 17.666 26.1914C15.9668 26.5898 14.0625 26.5898 12.3633 26.1914C11.6074 26.0156 10.2539 25.5352 10.2539 25.4414C10.2539 25.377 10.8691 24.2637 11.2324 23.6836C11.8125 22.7402 13.459 20.4902 13.6113 20.4258C13.7227 20.3848 13.8867 20.3848 14.4434 20.4551ZM11.4961 26.9766C11.8594 27.0879 12.5039 27.2402 12.9199 27.3105C14.0273 27.5098 15.9727 27.5098 17.0801 27.3105C17.918 27.1641 18.9023 26.8828 19.6641 26.5723L20.1562 26.373L20.2441 26.584C20.4199 27.0059 20.6367 27.7852 20.584 27.832C20.5195 27.8965 19.5293 28.2598 18.9258 28.4414C16.4766 29.1797 13.5234 29.1797 11.0742 28.4414C10.4707 28.2598 9.48047 27.8965 9.41601 27.832C9.36328 27.7852 9.58008 27.0059 9.75586 26.584L9.84375 26.373L10.3359 26.5723C10.6055 26.6836 11.127 26.8652 11.4961 26.9766Z" fill="#1843A8"/>
<path d="M14.6777 10.166C14.5488 10.2891 14.5312 10.3594 14.5312 10.752C14.5312 11.1445 14.5488 11.2148 14.6777 11.3379C14.7656 11.4316 14.8887 11.4844 15 11.4844C15.1113 11.4844 15.2344 11.4316 15.3223 11.3379C15.4512 11.2148 15.4688 11.1445 15.4688 10.752C15.4688 10.3594 15.4512 10.2891 15.3223 10.166C15.2344 10.0723 15.1113 10.0195 15 10.0195C14.8887 10.0195 14.7656 10.0723 14.6777 10.166Z" fill="#1843A8"/>
<path d="M14.2559 12.6211C13.6289 12.8262 13.0605 13.3242 12.7559 13.9395C12.5801 14.3027 12.5684 14.3555 12.5684 15C12.5684 15.6504 12.5742 15.6914 12.7617 16.0723C13.0137 16.5762 13.4238 16.9863 13.9277 17.2383C14.3086 17.4258 14.3496 17.4316 15 17.4316C15.6504 17.4316 15.6914 17.4258 16.0723 17.2383C16.5762 16.9863 16.9863 16.5762 17.2383 16.0723C17.4258 15.6914 17.4316 15.6504 17.4316 15C17.4316 14.3496 17.4258 14.3086 17.2383 13.9277C16.9863 13.4238 16.5762 13.0137 16.0723 12.7617C15.7207 12.5918 15.6211 12.5684 15.0938 12.5566C14.7129 12.5449 14.4141 12.5684 14.2559 12.6211ZM15.4453 13.5645C15.9902 13.7227 16.418 14.2383 16.5 14.8301C16.5762 15.3867 16.2422 16.0137 15.709 16.3125C15.4395 16.459 15.3223 16.4883 15.0059 16.4883C14.3906 16.4824 13.9453 16.2129 13.6641 15.6738C13.3301 15.0176 13.5352 14.1973 14.1445 13.7813C14.6074 13.4707 14.9473 13.4121 15.4453 13.5645Z" fill="#1843A8"/>
<path d="M10.3711 13.2422C10.0664 13.5469 10.1895 13.9102 10.6641 14.1035C11.2266 14.332 11.6074 14.25 11.6895 13.8926C11.7539 13.5879 11.5957 13.3887 11.1797 13.2481C10.7285 13.0957 10.5235 13.0899 10.3711 13.2422Z" fill="#1843A8"/>
<path d="M18.8555 13.2305C18.4746 13.3711 18.3398 13.5059 18.3398 13.7695C18.3398 14.0859 18.5449 14.2617 18.8789 14.2266C19.4824 14.1563 19.8633 13.8457 19.7754 13.4941C19.6875 13.1367 19.377 13.0488 18.8555 13.2305Z" fill="#1843A8"/>
<path d="M12.375 17.8418C12.1465 18.0059 11.8945 18.4336 11.8945 18.6563C11.8945 19.0957 12.416 19.2715 12.7266 18.9375C13.1543 18.4688 13.2363 18.1523 12.9785 17.9004C12.8145 17.7305 12.5684 17.7129 12.375 17.8418Z" fill="#1843A8"/>
<path d="M17.0215 17.9004C16.7637 18.1523 16.8457 18.4688 17.2734 18.9375C17.3906 19.0605 17.4785 19.1016 17.6484 19.1016C18.1172 19.1016 18.252 18.6621 17.9297 18.1934C17.6074 17.7305 17.291 17.625 17.0215 17.9004Z" fill="#1843A8"/>
</svg>
